<?xml version="1.0" encoding="utf-8"?>
<!-- Generator: Adobe Illustrator 17.1.0, SVG Export Plug-In . SVG Version: 6.00 Build 0)  -->
<!DOCTYPE svg PUBLIC "-//W3C//DTD SVG 1.1//EN" "http://www.w3.org/Graphics/SVG/1.1/DTD/svg11.dtd">
<svg version="1.1" id="图层_1" xmlns="http://www.w3.org/2000/svg" xmlns:xlink="http://www.w3.org/1999/xlink" x="0px" y="0px"
	 viewBox="0 0 1000 1000" enable-background="new 0 0 1000 1000" xml:space="preserve">
<g transform="translate(0.000000,422.000000) scale(0.100000,-0.100000)">
	<path d="M4737.003,2827.3c-4.094-4.094-155.555-47.076-335.671-94.152c-180.117-47.076-415.496-108.479-521.928-135.087
		c-448.244-118.713-2769.29-724.559-2777.477-724.559c-2.047,0-4.094-1152.336-2.047-2560.519l6.14-2560.519l1817.538-1164.616
		c1000.874-638.595,1862.568-1195.318,1919.878-1234.207c55.263-40.936,108.479-73.684,120.76-73.684
		c10.234,0,151.461,104.386,311.11,229.239c161.695,126.9,638.594,499.414,1058.184,824.852
		c421.636,327.484,1140.055,884.208,1596.487,1240.347l830.991,644.735l-8.187,2548.238
		c-4.094,1399.996-10.234,2550.285-12.281,2552.332c-8.187,8.187-71.637,16.374-1135.961,157.602
		c-1033.623,137.134-2040.638,270.175-2384.496,317.251C4925.307,2833.44,4755.424,2845.721,4737.003,2827.3z M4984.664,2743.382
		c51.169-6.14,438.01-57.31,859.646-112.573c421.636-57.31,779.822-102.339,796.197-102.339c55.263,0,8.187-20.468-167.836-71.637
		l-180.117-51.169l-61.403,45.029c-83.917,63.45-311.11,75.731-440.057,26.608c-114.62-42.982-206.725-135.087-225.146-223.099
		l-12.281-69.591l-472.805-141.228L4606.01,1900.11l-61.403,42.982c-81.871,57.31-288.596,69.59-409.355,24.561
		c-98.246-38.889-235.38-173.976-235.38-233.333c0-32.748-71.637-59.357-417.542-163.742
		c-231.286-69.59-440.057-126.9-462.572-126.9c-24.562,0-354.093,65.497-732.747,143.274
		c-380.701,79.824-763.448,159.649-853.506,178.07c-90.058,16.374-173.976,36.842-188.304,45.029
		c-26.608,14.327,3569.58,961.985,3616.656,951.752C4878.231,2759.756,4933.494,2751.569,4984.664,2743.382z M7399.861,2426.132
		c728.653-96.198,1072.512-143.274,1078.651-151.461c4.094-4.094-302.923-122.807-683.624-264.034
		s-1142.102-425.73-1694.732-630.408l-1002.921-372.513l-122.807,22.515c-210.818,36.842-1797.071,372.513-1807.305,380.701
		c-4.094,6.14,22.515,18.421,61.403,28.655c36.842,10.234,200.584,59.357,360.233,106.432
		c161.695,47.076,296.783,81.871,298.83,77.777c2.047-4.094,26.608-36.842,53.216-75.731
		c130.994-190.35,458.478-194.444,652.922-8.187c90.058,85.965,90.058,85.965,79.824,204.678l-12.281,118.713l454.385,135.087
		l452.338,135.087l45.029-49.123c110.526-118.713,347.952-145.321,530.115-59.357c135.087,61.403,198.538,151.462,188.304,255.847
		l-6.141,79.824l245.613,71.637c135.087,38.889,268.128,67.544,296.783,63.45C6896.354,2491.629,7135.827,2458.88,7399.861,2426.132
		z M6179.981,2428.178c32.749-12.281,53.216-28.655,47.076-34.795c-14.328-16.374-614.033-192.397-622.221-184.21
		c-16.374,14.327,34.795,108.479,81.871,151.461C5795.188,2460.927,6022.38,2491.629,6179.981,2428.178z M6294.601,2280.811
		c0-171.929-276.315-307.017-503.507-245.613c-77.777,20.468-169.882,92.105-147.368,114.62
		c18.421,18.421,620.173,190.35,636.548,180.116C6288.461,2325.84,6294.601,2303.325,6294.601,2280.811z M8679.097-206.024
		c8.188-1344.733,10.234-2452.04,2.047-2458.18c-10.233-10.234-390.935,120.76-1250.581,427.777
		c-122.807,45.029-358.187,126.9-521.929,184.21s-304.97,110.526-313.157,118.713c-28.655,24.561,85.965,141.228,280.409,286.549
		c440.057,329.531,583.332,483.04,585.378,628.361v45.029l73.684-49.123c40.936-28.655,94.152-51.169,114.62-51.169
		c34.795,0,38.889,10.234,26.608,67.544c-49.123,223.099-196.491,474.852-349.999,597.659
		c-55.263,45.029-102.339,81.871-106.433,83.918s18.421,38.889,47.076,81.871c206.724,302.923,280.408,665.203,180.116,888.301
		c-79.824,178.07-288.596,315.204-634.501,413.449c-130.994,36.842-212.865,45.029-456.432,47.076
		c-425.729,0-685.67-65.497-1078.652-278.362c-102.339-55.263-192.397-100.292-200.584-100.292c-6.141,0-10.234,42.982-6.141,94.152
		l6.141,96.199l337.718,126.9c186.257,69.59,683.624,253.8,1105.26,409.356s1066.371,397.075,1432.745,534.209
		c366.373,137.134,675.437,249.707,687.717,251.754C8656.583,2241.922,8666.816,1568.532,8679.097-206.024z M4436.127,1934.905
		c42.982-12.281,81.871-28.655,85.965-38.889c6.14-8.187-110.526-51.169-259.941-94.152
		c-149.415-42.982-282.455-81.871-298.829-88.011c-47.076-16.374,30.702,110.526,96.198,155.555
		C4165.953,1947.186,4305.133,1969.7,4436.127,1934.905z M4618.291,1789.584c38.889-73.684-10.234-194.444-100.292-251.754
		c-184.21-120.76-399.122-112.573-515.788,22.515c-34.795,38.889-59.356,75.731-53.216,81.871
		c14.327,14.328,569.004,186.257,609.939,188.304C4579.401,1832.566,4603.963,1812.098,4618.291,1789.584z M1507.188,1668.824
		c161.695-32.748,562.864-116.666,888.301-184.21c327.484-69.59,659.062-137.134,736.84-153.508
		c79.824-16.374,519.881-108.479,980.406-204.678c460.525-96.198,845.319-173.976,855.553-173.976
		c8.188,0,16.375-63.45,16.375-141.228V672.043l-102.339-63.45c-96.199-59.357-141.228-114.62-116.667-139.181
		c10.234-10.234,108.479,12.281,184.21,42.982c32.749,14.327,34.795-10.234,34.795-325.438v-339.765h-223.099h-221.052
		L4526.186,64.15c-16.375,261.988-81.871,485.086-192.397,654.969c-135.087,206.725-135.087,206.725-176.023-75.731
		c-30.702-204.678-51.169-276.315-116.666-405.262c-42.982-85.965-96.199-178.07-116.667-204.678l-38.889-47.076l-182.163,40.936
		c-307.017,71.637-507.601,92.105-816.664,81.871l-292.689-8.187l-26.608,122.807c-26.608,130.994-30.702,452.338-6.14,654.969
		l12.281,120.76l-65.497-47.076C2147.83,694.558,1808.065-281.755,1838.766-979.706c6.14-178.07,22.515-282.455,53.216-370.467
		c118.713-333.625,364.326-521.928,773.682-593.565c313.157-53.216,333.625-65.497,403.215-237.426l30.702-73.684l-352.046-169.882
		c-194.444-94.152-622.22-302.923-953.798-464.619c-329.531-161.695-603.799-292.689-607.893-292.689s-8.187,1105.26-8.187,2456.133
		c0,1391.809,8.187,2456.133,18.421,2456.133S1345.493,1703.619,1507.188,1668.824z M6646.647,944.265
		c309.063-61.403,534.209-173.976,632.454-315.204c42.982-63.45,49.123-96.199,49.123-237.426
		c0-182.163-42.982-298.83-188.304-526.022l-75.731-114.62l-81.871,24.561c-47.076,16.374-108.479,32.748-139.181,38.889
		c-42.982,10.234-57.31,24.561-57.31,61.403c0,49.123-49.123,83.918-83.917,61.403c-10.234-6.14-18.421-28.655-18.421-51.169
		c0-57.31-114.619-55.263-128.947,2.047c-14.328,55.263-96.199,55.263-110.526-2.047c-10.234-36.842-22.515-40.936-85.965-30.702
		c-40.936,6.14-90.058,12.281-110.526,12.281c-28.655,0-34.795,10.234-24.562,40.936c16.375,53.216-22.515,102.339-81.871,102.339
		c-47.076,0-71.637-34.795-71.637-104.386c0-30.702-14.327-38.889-69.59-38.889c-42.982,0-73.684,12.281-81.871,30.702
		c-6.14,16.374-24.562,30.702-42.982,30.702s-36.842-14.327-42.982-30.702c-20.468-53.216-85.964-34.795-120.76,32.748
		c-38.889,71.637-71.637,69.59-108.479-8.187c-34.795-71.637-61.403-69.59-69.591,2.047c-6.14,49.123-14.327,55.263-77.777,55.263
		c-65.497,0-71.637-6.14-77.777-65.497l-6.141-67.544h-153.508h-151.461v358.186v358.186l77.777,49.123
		c221.052,139.181,554.677,278.362,781.869,327.484C6102.204,979.06,6458.343,981.107,6646.647,944.265z M5985.538-330.878
		c-100.292-169.883-108.479-188.304-94.151-202.631c20.468-20.468,163.742,120.76,210.818,208.771
		c36.842,67.544,42.982,69.59,155.555,69.59c71.637,0,118.713-8.187,118.713-22.515c0-12.281-36.842-83.918-81.871-159.649
		c-79.824-135.087-98.245-186.257-65.497-186.257c26.608,0,94.151,79.824,180.116,214.912
		c42.982,67.544,79.824,126.9,83.918,130.994c12.281,18.421,251.753-47.076,251.753-67.544
		c0-38.889-141.228-235.379-194.444-270.175c-65.497-42.982-67.543-90.058-6.14-73.684
		c49.123,12.281,261.987,212.865,296.783,278.362c20.468,38.889,24.562,38.889,94.152-6.14
		c102.339-61.403,173.976-153.508,190.35-237.426c22.515-128.947,2.047-159.649-200.584-286.549
		c-405.262-255.847-687.717-513.741-779.822-710.232c-24.562-55.263-55.263-98.245-65.497-98.245
		c-34.795,0-773.682,268.128-800.29,288.596c-12.281,10.234-28.655,69.59-36.842,128.947
		c-14.328,122.807-61.403,249.707-143.274,378.654c-57.31,90.058-69.591,165.789-24.562,165.789
		c53.216,0,135.087-85.965,239.473-251.754l104.386-167.836l-8.188,106.432c-12.28,122.807-81.871,278.362-200.584,433.917
		c-88.011,116.666-98.245,169.883-32.749,182.163c51.169,10.234,245.613-196.491,339.765-360.233
		c81.871-143.274,112.573-159.649,96.199-53.216c-18.421,110.526-83.918,229.239-198.538,366.373
		c-110.526,128.947-124.854,173.976-63.45,173.976c42.982,0,137.134-108.479,245.613-280.409
		c36.842-59.357,75.731-104.386,83.918-98.245c42.982,26.608-94.152,354.093-176.023,421.636
		c-30.702,26.608-30.702,28.655,14.328,40.936c26.608,8.187,153.508,14.327,280.409,16.374l233.333,2.047L5985.538-330.878z
		 M4129.11-944.911c69.59-32.748,118.713-124.853,118.713-216.958c0-85.965-83.918-253.8-163.742-331.578
		c-55.263-53.216-77.778-59.357-229.239-65.497c-141.228-8.187-180.116-2.047-233.333,30.702
		c-71.637,45.029-130.994,155.555-130.994,245.613c0,143.274,178.07,286.549,321.344,259.941
		c96.199-16.374,169.883-94.152,169.883-173.976c0-122.807-153.508-192.397-233.333-104.386
		c-42.982,47.076-30.702,73.684,49.123,114.62c77.778,38.889,63.45,102.339-18.421,81.871
		c-81.871-18.421-151.462-106.432-135.087-171.929c24.561-98.245,81.871-135.087,206.725-135.087
		c100.292,0,120.76,8.187,163.742,57.31c59.356,69.59,65.497,194.444,14.327,282.455
		c-32.749,55.263-165.789,137.134-233.333,143.274c-16.374,2.047,8.187,10.234,53.216,18.421
		C3946.947-891.695,4053.38-906.022,4129.11-944.911z M2442.566-1098.419c4.094-141.228,12.281-180.116,34.795-180.116
		c34.795,0,92.105,102.339,94.152,167.836c0,26.608,8.187,63.45,16.374,83.918c12.281,32.748,20.468,30.702,100.292-26.608
		c237.426-171.929,313.157-448.244,153.508-573.098c-284.502-223.099-929.237,210.818-826.898,554.677
		c34.795,114.62,122.807,163.742,288.596,157.602l133.041-6.14L2442.566-1098.419z M3431.159-1172.103
		c-92.105-171.929,90.058-472.806,284.502-474.852c102.339-2.047,110.526-34.795,12.281-59.357
		c-409.356-102.339-601.753,186.257-347.952,519.882C3437.3-1110.7,3468.001-1102.513,3431.159-1172.103z M5164.78-1515.962
		c40.936-20.468,90.059-36.842,106.433-40.936s208.771-69.59,423.683-145.321c335.671-118.713,395.028-145.321,395.028-180.116
		c0-126.9,227.192-476.899,458.479-706.138c83.917-81.871,135.087-149.415,135.087-176.023c0-24.561-71.637-145.321-159.648-268.128
		c-137.134-192.397-171.929-227.192-268.128-274.268c-122.807-57.31-163.742-120.76-112.573-171.929
		c40.936-38.889,100.292-38.889,219.005,2.047c104.385,34.795,124.853,59.356,145.321,173.976
		c14.328,77.778,157.602,325.438,270.175,462.572c38.889,47.076,69.59,98.245,69.59,112.573c0,16.374-47.076,73.684-104.385,128.947
		c-141.228,137.134-266.082,296.783-251.754,319.297c30.702,49.123,104.386-2.047,321.344-225.146
		c176.023-180.116,243.566-266.081,261.987-327.484c24.562-79.824,22.515-85.965-83.918-272.221
		c-157.602-276.315-327.484-548.536-372.513-593.565c-24.562-24.562-67.544-36.842-137.134-36.842
		c-120.76,0-161.695-36.842-133.041-118.713c26.608-77.778,102.339-110.526,221.052-98.245
		c143.274,16.374,188.303,53.216,214.912,178.07c47.076,216.958,235.379,534.209,462.572,777.776
		c83.917,90.058,153.508,180.116,153.508,200.584c0,57.31-59.357,96.198-219.005,145.321
		c-137.134,40.936-159.649,57.31-290.643,196.491c-135.087,143.274-309.063,380.701-309.063,419.589
		c0,18.421,8.188,14.327,675.437-223.099c253.8-90.058,663.156-235.379,910.816-323.391
		c247.66-85.965,458.478-163.742,466.666-171.929c10.233-8.187-802.337-650.875-1805.258-1430.697
		c-1000.874-777.776-1825.726-1426.604-1829.819-1440.932c-16.374-40.936-16.374,231.286,6.141,1878.942
		c24.561,1801.164,38.889,2261.689,63.45,2261.689C5078.815-1483.214,5121.798-1497.541,5164.78-1515.962z M4933.494-3503.383
		c-8.187-785.963-20.468-1573.972-28.655-1749.995l-12.281-321.344l-1166.663,747.074
		c-642.688,409.356-1459.353,931.284-1815.492,1160.523c-358.186,227.192-648.828,419.589-650.875,425.73
		c0,6.14,71.637,45.029,159.649,85.965c85.965,38.889,425.73,202.631,751.167,364.326
		c556.724,272.221,927.19,448.244,941.518,448.244c16.374,0,51.169-141.228,81.871-331.578
		c20.468-137.134,30.702-304.97,26.608-476.899l-6.14-266.081l-116.666,6.14c-106.433,8.187-118.713,4.094-151.462-47.076
		c-47.076-73.684-20.468-147.368,73.684-202.631c53.216-32.749,106.432-42.982,225.146-42.982
		c261.988,0,327.484,67.544,327.484,335.671c2.047,208.771,36.842,532.162,65.497,591.519
		c22.515,45.029,40.936,55.263,98.245,55.263c67.544,0,75.731-6.14,137.134-135.087c79.824-163.742,200.584-611.987,182.163-683.624
		c-12.281-51.169-108.479-92.105-212.865-92.105c-114.619,0-173.976-108.479-128.947-231.286
		c61.403-161.695,483.04-151.461,648.829,14.327c122.807,122.807,139.181,219.005,145.321,861.693
		c2.047,315.204,4.094,589.472,4.094,607.893c2.047,47.076,79.824,96.198,208.771,128.947
		c106.432,28.655,202.631,98.245,202.631,147.368c0,14.327,6.14,26.608,12.281,26.608
		C4941.681-2076.779,4941.681-2719.467,4933.494-3503.383z"/>
</g>
</svg>
